<?xml version="1.0" standalone="no"?>
<!DOCTYPE svg PUBLIC "-//W3C//DTD SVG 1.1//EN" "http://www.w3.org/Graphics/SVG/1.1/DTD/svg11.dtd">
<svg width="100%" height="100%" viewBox="0 0 48 48" version="1.1" xmlns="http://www.w3.org/2000/svg" xmlns:xlink="http://www.w3.org/1999/xlink" xml:space="preserve" style="fill-rule:evenodd;clip-rule:evenodd;stroke-linejoin:round;stroke-miterlimit:1.41421;">
    <path d="M44,11.44L34.81,3.73L32.24,6.79L41.43,14.5L44,11.44ZM15.76,6.78L13.19,3.72L4,11.43L6.57,14.49L15.76,6.78L15.76,6.78ZM23.99,8C14.04,8 6,16.06 6,26C6,35.94 14.04,44 23.99,44C33.94,44 42,35.94 42,26C42,16.06 33.94,8 23.99,8L23.99,8ZM24,40C16.27,40 10,33.73 10,26C10,18.27 16.27,12 24,12C31.73,12 38,18.27 38,26C38,33.73 31.74,40 24,40L24,40ZM21.07,29.05L16.83,24.81L14.71,26.93L21.07,33.29L33.08,21.28L30.96,19.16L21.07,29.05L21.07,29.05Z" style="fill:white;fill-rule:nonzero;"/>
</svg>
