<?xml version="1.0" standalone="no"?>
<!DOCTYPE svg PUBLIC "-//W3C//DTD SVG 1.1//EN" "http://www.w3.org/Graphics/SVG/1.1/DTD/svg11.dtd">
<svg width="100%" height="100%" viewBox="0 0 1024 500" version="1.1" xmlns="http://www.w3.org/2000/svg" xmlns:xlink="http://www.w3.org/1999/xlink" xml:space="preserve" style="fill-rule:evenodd;clip-rule:evenodd;stroke-linejoin:round;stroke-miterlimit:1.41421;">
    <g transform="matrix(1,0,0,0.935635,0,0)">
        <rect x="0" y="0" width="1024" height="267.198" style="fill:rgb(97,178,227);"/>
    </g>
    <g transform="matrix(0.5,0,0,0.935635,0,0)">
        <rect x="0" y="0" width="1024" height="267.198" style="fill:rgb(125,195,236);"/>
    </g>
    <g transform="matrix(1,0,0,0.935635,0,250)">
        <rect x="0" y="0" width="1024" height="267.198" style="fill:rgb(159,221,248);"/>
    </g>
    <g transform="matrix(0.5,0,0,0.935635,512,250)">
        <rect x="0" y="0" width="1024" height="267.198" style="fill:rgb(133,213,247);"/>
    </g>
    <g transform="matrix(10.0613,0,0,10.0613,270.529,9.93738)">
        <path d="M44,11.44L34.81,3.73L32.24,6.79L41.43,14.5L44,11.44ZM15.76,6.78L13.19,3.72L4,11.43L6.57,14.49L15.76,6.78ZM23.99,8C14.04,8 6,16.06 6,26C6,35.94 14.04,44 23.99,44C33.94,44 42,35.94 42,26C42,16.06 33.94,8 23.99,8ZM24,40C16.27,40 10,33.73 10,26C10,18.27 16.27,12 24,12C31.73,12 38,18.27 38,26C38,33.73 31.74,40 24,40ZM21.07,29.05L16.83,24.81L14.71,26.93L21.07,33.29L33.08,21.28L30.96,19.16L21.07,29.05Z" style="fill:rgb(0,143,255);fill-opacity:0.8;fill-rule:nonzero;"/>
    </g>
    <g transform="matrix(4.23428,0,0,4.23428,37.0795,19.8966)">
        <path d="M15.76,6.78L13.19,3.72L4,11.43L6.57,14.49L15.76,6.78ZM44,11.44L34.81,3.73L32.24,6.79L41.43,14.5L44,11.44ZM23.99,8C14.04,8 6,16.06 6,26C6,35.94 14.04,44 23.99,44C33.94,44 42,35.94 42,26C42,16.06 33.94,8 23.99,8ZM24,40C16.27,40 10,33.73 10,26C10,18.27 16.27,12 24,12C31.73,12 38,18.27 38,26C38,33.73 31.74,40 24,40ZM26,18L22,18L22,24L16,24L16,28L22,28L22,34L26,34L26,28L32,28L32,24L26,24L26,18Z" style="fill:rgb(71,133,197);fill-opacity:0.796079;fill-rule:nonzero;"/>
    </g>
    <g transform="matrix(9.29169,0,0,9.29169,745.681,30.259)">
        <g transform="matrix(1,0,0,1,-1.11905,0.696665)">
            <g transform="matrix(0.538037,0,0,0.538037,10.5553,29.1419)">
                <path d="M2.049,0.58L-0.035,2.664L10.801,13.5L-0.035,24.336L2.049,26.42L14.969,13.5L2.049,0.58Z" style="fill:rgb(71,133,197);fill-opacity:0.796079;fill-rule:nonzero;"/>
            </g>
            <g transform="matrix(0.538037,0,0,0.538037,10.4715,29.1419)">
                <path d="M13.049,0.58L10.965,2.664L21.801,13.5L10.965,24.336L13.049,26.42L25.969,13.5L13.049,0.58Z" style="fill:rgb(71,133,197);fill-opacity:0.796079;fill-rule:nonzero;"/>
            </g>
        </g>
        <g id="Shape" transform="matrix(-0.905194,0,0,0.905194,-56.5134,25.9497)">
            <path d="M10,0C4.5,0 0,4.5 0,10C0,15.5 4.5,20 10,20C15.5,20 20,15.5 20,10C20,4.5 15.5,0 10,0ZM10,18C5.6,18 2,14.4 2,10C2,5.6 5.6,2 10,2C14.4,2 18,5.6 18,10C18,14.4 14.4,18 10,18ZM10.5,5L9,5L9,11L14.2,14.2L15,12.9L10.5,10.2L10.5,5Z" style="fill:rgb(71,133,197);fill-opacity:0.8;"/>
        </g>
        <g id="Shape1" transform="matrix(0.905194,0,0,0.905194,7.3191,-1.3995)">
            <path d="M10,0C4.5,0 0,4.5 0,10C0,15.5 4.5,20 10,20C15.5,20 20,15.5 20,10C20,4.5 15.5,0 10,0ZM10,18C5.6,18 2,14.4 2,10C2,5.6 5.6,2 10,2C14.4,2 18,5.6 18,10C18,14.4 14.4,18 10,18ZM10.5,5L9,5L9,11L14.2,14.2L15,12.9L10.5,10.2L10.5,5Z" style="fill:rgb(71,133,197);fill-opacity:0.796079;"/>
        </g>
    </g>
</svg>
