<?xml version="1.0" ?><!DOCTYPE svg  PUBLIC '-//W3C//DTD SVG 1.1//EN'  'http://www.w3.org/Graphics/SVG/1.1/DTD/svg11.dtd'><svg enable-background="new 0 0 153 153" height="153px" id="Layer_1" version="1.1" viewBox="0 0 153 153" width="153px" xml:space="preserve" xmlns="http://www.w3.org/2000/svg" xmlns:xlink="http://www.w3.org/1999/xlink"><g><path d="M152.5,122.1c0,16.789-13.611,30.4-30.4,30.4H30.9c-16.789,0-30.4-13.611-30.4-30.4V30.898   C0.5,14.109,14.111,0.5,30.9,0.5H122.1c16.789,0,30.4,13.609,30.4,30.398V122.1z" fill="#F1635A"/><g><path d="M76.621,30.614c-28.075,0-50.834,22.76-50.834,50.833c0,28.074,22.759,50.834,50.834,50.834    c28.074,0,50.834-22.76,50.834-50.834C127.455,53.374,104.695,30.614,76.621,30.614z M76.621,124.705    c-23.891,0-43.257-19.367-43.257-43.258c0-23.889,19.366-43.255,43.257-43.255c23.89,0,43.256,19.366,43.256,43.255    C119.877,105.338,100.511,124.705,76.621,124.705z" fill="#FFFFFF"/><path d="M130.646,54.404c4.842-6.306,0.074-18.091-10.648-26.326c-10.723-8.233-23.34-9.796-28.182-3.49    L130.646,54.404z" fill="#FFFFFF"/><path d="M22.354,54.404c-4.842-6.306-0.075-18.091,10.648-26.326c10.723-8.233,23.34-9.796,28.182-3.49    L22.354,54.404z" fill="#FFFFFF"/><circle cx="76.621" cy="81.447" fill="#FFFFFF" r="5.525"/><ellipse cx="76.621" cy="58.399" fill="#FFFFFF" rx="2.053" ry="16.419"/><ellipse cx="93.934" cy="81.448" fill="#FFFFFF" rx="10.448" ry="1.526"/></g></g></svg>