<?xml version="1.0" standalone="no"?>
<!DOCTYPE svg PUBLIC "-//W3C//DTD SVG 1.1//EN" "http://www.w3.org/Graphics/SVG/1.1/DTD/svg11.dtd">
<svg width="100%" height="100%" viewBox="0 0 20 20" version="1.1" xmlns="http://www.w3.org/2000/svg" xmlns:xlink="http://www.w3.org/1999/xlink" xml:space="preserve" style="fill-rule:evenodd;clip-rule:evenodd;stroke-linejoin:round;stroke-miterlimit:1.41421;">
    <g id="Shape" transform="matrix(0.824594,0,0,0.824594,1.75406,1.75406)">
        <path d="M10,0C4.5,0 0,4.5 0,10C0,15.5 4.5,20 10,20C15.5,20 20,15.5 20,10C20,4.5 15.5,0 10,0ZM10,18C5.6,18 2,14.4 2,10C2,5.6 5.6,2 10,2C14.4,2 18,5.6 18,10C18,14.4 14.4,18 10,18ZM10.5,5L9,5L9,11L14.2,14.2L15,12.9L10.5,10.2L10.5,5Z" style="fill:rgb(219,219,219);"/>
    </g>
</svg>
